<?xml version="1.0" encoding="UTF-8"?>
<!DOCTYPE svg PUBLIC "-//W3C//DTD SVG 1.1//EN"
    "http://www.w3.org/Graphics/SVG/1.1/DTD/svg11.dtd">
<svg xmlns="http://www.w3.org/2000/svg" viewBox="0.0 0.0 930.0 1630.0" xmlns:xlink="http://www.w3.org/1999/xlink" version="1.11.1">
  <g>
    <polyline points="487.2818,845.5292 494.3265,841.7180 496.1449,840.7425 499.0947,838.4876 500.1980,839.3898 504.1708,838.8622 513.7537,837.5909 547.9225,807.7274 589.6426,819.1755 640.9622,835.0781 644.6561,832.9996 648.5342,839.8295 654.4946,849.4255 657.9616,854.4175 665.4982,863.6069 673.5442,872.0080 679.3633,877.1283 684.4790,881.0587 690.1200,884.7149 695.6070,887.7522 705.0107,891.5422 713.6437,893.8475 732.8244,901.2547 733.9992,901.7333 731.2705,907.3915 725.9675,918.6823 722.7877,925.6051 720.8328,928.6222 718.3601,933.6911 704.6790,961.9992 698.1955,978.1671 697.0340,981.1476 694.7385,988.3109 694.0372,990.6248 693.0724,994.0015 691.9527,998.1805 690.6865,1004.3340 689.7640,1008.5970 688.9844,1013.0201 687.8541,1013.4642 685.0117,1025.3746 683.3847,1025.6333 676.5283,1026.9331 647.4182,1033.9201 639.0702,1034.8201 628.8531,1033.5728 617.3152,1030.4316 607.4752,1025.6315 498.8340,968.8995 504.9197,954.1154 507.2147,948.2805 508.4772,944.4104 509.0802,942.3460 510.1724,937.4437 510.8325,932.2735 511.0594,928.0016 511.0240,924.2498 510.8330,921.3801 510.5474,918.6362 510.2322,916.4432 509.7191,913.7128 508.4926,908.8038 506.8582,903.7509 499.0942,881.0740 494.9538,869.0358 491.0631,857.4017 487.2818,845.5292" opacity="1.0" stroke="black" stroke-width="1" fill="none"/>
    <polyline points="702.5284,1548.1163 707.5669,1530.7902 710.4242,1518.9548 723.4187,1496.3157 725.4910,1491.7376 752.2009,1457.1652 756.5957,1438.6825 757.8154,1437.0641 758.7251,1435.2369 761.2941,1423.3059 762.5349,1422.3742 764.3068,1421.8473 765.3181,1420.5894 766.8039,1408.7014 768.3229,1345.3825 769.3210,1342.2589 771.3515,1338.0009 772.4718,1335.8994 772.8113,1334.8247 773.2085,1332.8851 773.2181,1331.2165 773.0668,1329.4413 772.6839,1328.0702 769.1422,1317.6900 770.7380,1262.8631 771.0357,1260.6582 771.6927,1259.1341 779.4895,1244.1056 853.0829,1290.9721 896.6585,1208.6252 907.1089,1215.0633 913.0952,1218.6345 912.6779,1219.4455 912.5552,1219.6760 910.1586,1224.5201 907.6378,1229.6344 897.2011,1250.2359 896.6130,1251.3822 896.3152,1251.9372 892.7207,1259.0365 891.1027,1262.2366 885.9875,1272.3523 880.1604,1283.8761 878.8275,1287.5407 878.5594,1288.0759 871.4877,1302.2170 871.0593,1303.0730 869.7322,1305.7269 868.7040,1307.6134 865.3353,1314.0013 866.5851,1313.8603 869.5217,1313.4770 875.4884,1317.2480 876.2173,1315.8434 883.0964,1320.1495 881.6631,1322.7220 885.0741,1322.7943 885.0915,1328.8448 885.2068,1330.1256 885.5866,1335.1284 886.0515,1335.1338 893.9890,1335.0606 893.9959,1338.9671 894.0012,1341.6117 894.0139,1348.4736 904.0946,1349.1849 904.1501,1349.5031 904.9239,1353.9146 905.4317,1356.6613 906.1177,1356.7634 908.7718,1370.8274 907.9012,1371.0370 908.8792,1376.0756 909.8016,1380.9704 910.7505,1382.2899 912.2405,1391.3147 912.6366,1393.7719 911.8401,1394.0440 914.7068,1411.1847 915.3918,1411.0383 917.0711,1420.7557 917.4783,1423.1875 915.0612,1426.9865 906.1251,1441.1883 905.9955,1442.5654 899.6659,1452.0173 898.9275,1453.1550 898.9476,1453.6502 899.0233,1454.1652 892.5472,1464.6922 895.5176,1466.6014 901.0681,1470.0513 892.6017,1484.1532 887.8604,1484.4550 884.4547,1484.6574 876.2776,1486.9316 865.4776,1495.2902 862.8176,1496.9970 852.7518,1503.5764 852.2488,1502.9801 846.7078,1506.6031 841.0811,1510.4105 841.4281,1513.4263 842.8694,1527.1583 843.3211,1533.6424 843.4655,1536.0175 843.4057,1538.6176 843.1788,1541.0542 842.7102,1544.2740 841.4762,1551.0433 841.6175,1555.2749 841.5217,1556.8441 841.4265,1558.8460 841.3673,1560.7658 841.2488,1564.9566 841.2255,1568.0741 841.3133,1570.9234 841.6593,1574.3914 842.4114,1581.2136 837.7743,1580.2208 832.9432,1579.1964 827.8518,1577.4014 822.8191,1575.6390 819.1659,1574.9443 816.1415,1574.4122 808.1829,1572.8693 802.3013,1570.9541 805.0585,1561.1325 799.0013,1561.1009 793.0177,1561.3999 786.8298,1561.6981 780.6420,1562.1425 774.5467,1562.4614 768.0574,1562.7370 761.9129,1562.9980 755.8917,1563.3187 743.5155,1564.2059 737.3472,1564.6088 718.7282,1565.5085 714.3625,1565.8654 710.0581,1566.2177 705.8146,1566.4743 704.4394,1557.5497 702.5284,1548.1163" opacity="1.0" stroke="black" stroke-width="1" fill="none"/>
    <polyline points="114.6926,717.9276 114.7005,713.9152 122.6639,709.9372 142.9396,739.0542 173.5915,775.1298 202.9011,803.4815 221.2446,818.8688 243.0572,833.6466 256.8848,843.0147 291.3111,864.7515 305.7766,873.8565 301.2739,882.1299 305.0440,884.5049 309.8508,887.8046 312.2024,889.6051 314.6497,891.8752 317.0754,894.6175 319.6221,897.9117 321.6225,901.2303 323.3600,905.2102 324.9563,909.5692 325.9512,913.0849 326.8149,917.3714 327.3681,921.0047 327.5808,929.8164 327.0132,938.2497 325.8464,945.3902 324.9420,948.6695 324.1618,951.0496 323.0199,954.0204 320.4790,959.2926 319.0197,962.1702 314.3588,969.3111 307.3935,981.7275 297.7957,998.3143 297.1007,999.0316 296.3454,999.3772 295.4917,999.2949 291.1821,997.5889 289.3663,997.1538 283.8666,1005.3326 265.3919,988.4746 261.6694,986.1662 257.1805,984.6076 251.2682,982.9496 246.8819,982.1988 243.2265,981.9871 238.1467,982.6438 232.8068,985.3241 223.2979,992.2313 223.0419,991.8342 222.6986,991.3122 222.4294,990.9016 222.1601,990.4918 221.7518,989.8812 219.7224,986.8492 218.5439,985.0355 215.3625,980.1372 211.0597,973.8802 206.7844,967.6847 202.6224,961.8192 197.7801,955.2652 193.2092,949.4846 188.4341,943.6740 187.4783,942.5079 183.4723,937.6173 178.4259,931.4565 173.4313,925.3346 172.2798,923.9151 169.5728,920.4157 168.3187,918.7936 166.9679,916.7146 165.7249,914.8979 165.4425,914.4854 164.9606,913.6965 164.5290,912.9184 164.0165,912.2218 163.6478,911.7224 161.9860,908.7658 160.9059,906.8333 159.4302,904.1924 156.1086,896.5763 155.4760,894.9531 153.1313,888.2869 151.8857,884.8650 150.3582,879.9684 149.9795,878.7071 149.3977,876.7682 148.0442,871.3466 147.4222,868.6983 146.7568,865.7188 146.1295,862.7084 145.4260,858.9724 144.6734,854.6663 144.1402,850.6109 143.6642,846.5255 142.4958,838.4351 141.4369,830.6777 141.2111,829.4805 140.7065,826.8056 140.0490,823.0911 139.2064,819.3429 138.3723,815.6971 136.4439,808.2794 134.5213,800.3857 132.6706,792.6800 130.7099,784.8059 130.1402,782.4267 128.7354,776.5072 127.6987,772.5994 126.7023,768.4038 124.7505,760.5292 122.9083,752.8527 121.0994,745.6033 118.1311,733.7061 117.8407,732.1241 115.7721,723.8542 115.1729,721.4774 114.9005,720.1849 114.8095,719.4708 114.7376,718.7458 114.6926,717.9276" opacity="1.0" stroke="black" stroke-width="1" fill="none"/>
    <polyline points="419.9762,715.8956 457.3069,689.4002 458.9798,685.9488 454.4676,685.4265 445.8531,684.6109 433.4362,683.9882 434.9843,676.7358 437.4660,665.1174 438.0547,662.7059 438.8491,660.0572 439.9303,657.0048 448.2264,635.3093 452.2060,624.8903 454.0075,620.7521 457.4476,614.3289 462.1232,607.3343 463.4931,605.5046 499.6776,557.5514 502.4475,555.0379 506.2642,554.0591 505.7903,551.7611 505.7617,550.3785 505.9109,549.3788 510.1560,537.5262 570.8454,538.3258 572.8410,515.8684 588.2875,378.3519 592.7479,384.2659 594.1152,386.1318 594.1305,386.1825 625.5790,490.5700 642.3601,514.6794 676.5865,563.9148 703.5307,584.9347 724.7785,598.7625 736.6152,610.2386 748.7026,622.0911 737.9666,628.6373 687.4050,659.9839 614.5400,705.1273 609.6067,708.4166 606.4120,710.6160 602.8159,713.4237 597.3871,718.0362 581.0593,732.4698 592.7442,737.3943 594.4204,738.2551 595.8352,739.4108 597.0428,740.9187 602.4446,750.5747 603.6442,752.2337 605.1352,753.4808 608.8773,755.5081 616.2563,759.2305 620.9208,762.2569 623.4623,770.9658 628.2644,790.7063 631.2797,801.4870 633.7784,809.0857 636.8911,816.9667 639.7710,823.5091 644.6561,832.9996 640.9622,835.0781 589.6426,819.1755 547.9225,807.7274 513.7537,837.5909 504.1708,838.8622 500.1980,839.3898 499.0947,838.4876 496.1449,840.7425 494.3265,841.7180 487.2818,845.5292 469.1451,791.5298 466.3636,784.4185 463.2493,777.9787 461.4689,774.4012 457.1429,767.4037 453.0395,761.7121 438.7322,741.8391 419.9762,715.8956" opacity="1.0" stroke="black" stroke-width="1" fill="none"/>
    <polyline points="223.2979,992.2313 232.8068,985.3241 238.1467,982.6438 243.2265,981.9871 246.8819,982.1988 251.2682,982.9496 257.1805,984.6076 261.6694,986.1662 265.3919,988.4746 283.8666,1005.3326 371.1172,1077.0204 368.7783,1097.5304 368.8587,1100.4252 369.3528,1103.1137 363.8800,1106.6704 344.3047,1124.3920 339.7613,1127.8699 335.0809,1130.8269 323.6520,1136.9343 321.1279,1138.3187 292.7292,1137.8412 292.6567,1141.4980 292.5827,1144.1140 292.3780,1148.1641 292.2029,1149.7646 292.0284,1150.7999 291.7306,1151.7683 295.8033,1153.0261 294.2514,1157.5246 287.2437,1176.1357 279.5093,1195.8879 271.2466,1192.2225 258.7715,1186.1502 271.0847,1152.3055 270.9255,1137.6079 246.0843,1136.6521 248.6426,1133.8571 250.8303,1131.1253 253.1374,1127.9079 254.7495,1125.3623 256.4908,1122.1648 257.9723,1119.0404 259.3422,1115.5236 260.3043,1112.5964 261.2759,1109.0795 261.9963,1105.8213 262.6326,1102.1606 263.1023,1098.8100 263.2953,1096.5655 263.3947,1094.3525 263.4577,1091.9126 263.3149,1088.2934 263.0520,1084.8505 262.3983,1081.2312 261.6435,1077.9746 260.7581,1074.3878 259.6775,1070.5631 257.2661,1063.3578 254.5618,1055.9787 251.7040,1048.7324 248.7823,1041.5067 247.9154,1039.2293 247.6112,1038.4298 245.6627,1033.7121 244.5112,1030.9779 243.8818,1029.5190 242.4516,1026.1986 240.9648,1023.1641 238.8328,1018.8207 236.9260,1015.2515 235.1679,1011.8985 231.4506,1005.5660 230.3579,1003.7298 227.9672,999.8114 226.6491,997.6197 226.3048,997.0471 224.1600,993.6161 223.9579,993.2923 223.2979,992.2313" opacity="1.0" stroke="black" stroke-width="1" fill="none"/>
    <polyline points="144.8209,1237.1273 144.8516,1236.3010 144.9325,1234.8527 145.0542,1232.4958 145.2044,1229.9418 145.4472,1227.4412 145.6857,1226.0046 146.0290,1223.8556 146.4839,1221.8060 147.0747,1218.5947 147.4449,1217.1129 148.6429,1213.1014 149.5669,1209.7526 150.3429,1207.7500 151.4827,1204.6896 152.9737,1201.4311 155.3263,1196.6130 157.1067,1193.5263 157.1157,1193.5127 157.5854,1192.8292 159.9549,1189.1285 162.0891,1186.1530 167.7068,1179.4884 169.4691,1177.7569 173.0954,1174.4485 174.7203,1173.1013 177.9292,1170.9086 180.4135,1169.2612 181.2207,1168.8163 183.3067,1167.5414 185.3748,1166.3388 187.3123,1165.4265 188.6203,1164.7321 190.6693,1163.7474 192.8871,1162.8658 193.0944,1162.7763 196.1881,1161.4444 202.6530,1159.0066 209.4423,1156.3003 216.2040,1153.7061 222.9842,1150.9374 226.5370,1149.4752 229.6343,1148.0140 232.7877,1146.4288 235.3747,1144.9360 238.2033,1143.1754 240.9765,1141.2692 243.1244,1139.4607 243.4984,1139.1470 246.0843,1136.6521 270.9255,1137.6079 271.0847,1152.3055 258.7715,1186.1502 271.2466,1192.2225 279.5093,1195.8879 287.2437,1176.1357 294.2514,1157.5246 295.8033,1153.0261 291.7306,1151.7683 292.0284,1150.7999 292.2029,1149.7646 292.3780,1148.1641 292.5827,1144.1140 292.6567,1141.4980 292.7292,1137.8412 321.1279,1138.3187 323.6520,1136.9343 335.0809,1130.8269 339.7613,1127.8699 344.3047,1124.3920 363.8800,1106.6704 369.3528,1103.1137 368.8587,1100.4252 368.7783,1097.5304 371.1172,1077.0204 397.2533,1093.6417 406.2936,1100.3284 414.4675,1106.8902 420.9584,1112.7926 444.0786,1132.2475 458.6805,1146.1060 488.9379,1166.8162 503.9687,1176.3111 518.6267,1183.6828 517.2795,1187.6638 515.1675,1194.7830 513.3126,1202.4275 511.9840,1209.5347 511.5883,1213.6321 511.4011,1216.3028 511.3265,1220.3975 511.4260,1223.3846 511.6174,1226.3129 511.9401,1229.1028 512.5610,1233.2480 513.7738,1238.9743 517.1764,1254.1430 477.6893,1315.4620 480.8443,1328.3251 481.5372,1333.1634 482.3163,1335.2604 473.4278,1343.5080 467.4309,1339.9025 462.6125,1347.2851 461.8381,1346.6913 459.3913,1345.0517 455.9639,1342.9087 453.3664,1341.4337 450.0665,1339.7263 447.6985,1338.6968 444.0913,1337.1630 441.1208,1336.0992 437.7056,1335.0001 435.0023,1334.2164 431.2337,1333.2909 424.4350,1331.8691 417.4972,1330.6019 410.5017,1329.4892 403.4221,1328.5935 396.3695,1327.7493 389.3068,1327.0913 384.2662,1326.7786 382.1870,1326.6493 375.1413,1326.3122 368.0844,1326.1612 364.1339,1326.1910 360.9524,1326.2154 353.8200,1326.4152 351.4356,1326.5336 346.7509,1326.8021 339.5698,1327.3950 332.3601,1328.1624 325.1779,1328.8276 321.5278,1329.2326 319.9416,1329.4251 317.8635,1329.6022 316.8336,1329.7270 314.2546,1329.9511 310.6643,1330.3307 308.6327,1330.5377 303.5033,1331.0584 300.1552,1331.4768 296.2216,1331.8185 292.4642,1332.2207 288.8744,1332.5488 285.8400,1332.7468 281.3674,1333.0532 277.8507,1333.2565 273.6447,1333.3641 270.0343,1333.4545 266.0790,1333.4247 262.3919,1333.3505 258.2960,1333.1888 256.4670,1333.0875 255.1748,1333.0161 250.9387,1332.7820 247.6959,1332.4874 243.6449,1332.1177 240.1778,1331.7010 236.5610,1331.1614 233.3643,1330.7935 228.7616,1330.0370 225.3289,1329.3618 221.2737,1328.5375 218.1197,1327.8587 216.3923,1327.4483 215.3239,1327.1952 213.7932,1326.8319 210.0024,1325.5502 206.1365,1324.1456 202.6509,1322.7057 198.6512,1320.8482 195.4047,1319.1064 191.5780,1316.9461 187.9068,1314.4659 184.7951,1312.3092 178.5560,1307.2202 175.5882,1304.5654 173.4387,1302.7449 171.8212,1301.3095 169.6791,1299.1048 167.9622,1297.3060 166.5305,1295.7883 165.8751,1294.9992 163.3056,1291.5615 162.7772,1290.8555 160.6838,1287.9692 158.5379,1284.3904 156.3921,1280.7999 154.9762,1278.0934 153.7718,1275.6464 152.5305,1273.0646 151.5758,1270.7631 150.2736,1267.3234 149.2559,1264.4840 148.4594,1262.0495 147.4089,1258.3313 146.5970,1255.1519 146.0248,1252.3666 145.6265,1250.1518 145.3213,1247.8230 145.1542,1245.7853 145.0209,1244.3985 144.9463,1242.3201 144.8744,1239.6821 144.8209,1237.1273" opacity="1.0" stroke="black" stroke-width="1" fill="none"/>
    <polyline points="295.0294,767.8372 295.1051,764.9557 295.2373,763.6171 303.6270,713.5369 304.9541,704.6023 305.4566,701.9656 308.9448,697.7105 310.2486,701.0822 310.9505,702.8735 311.3133,704.3661 311.2816,705.9030 309.4991,717.7384 315.2220,717.4542 324.8669,716.4405 336.8601,710.3906 347.5570,706.3538 358.6961,711.3338 362.9010,700.3997 414.1364,723.3881 417.7912,725.2970 422.7499,728.3734 426.2497,730.8316 429.1852,733.2744 438.7322,741.8391 453.0395,761.7121 457.1429,767.4037 461.4689,774.4012 463.2493,777.9787 466.3636,784.4185 469.1451,791.5298 487.2818,845.5292 491.0631,857.4017 494.9538,869.0358 499.0942,881.0740 506.8582,903.7509 508.4926,908.8038 509.7191,913.7128 510.2322,916.4432 510.5474,918.6362 510.8330,921.3801 511.0240,924.2498 511.0594,928.0016 510.8325,932.2735 510.1724,937.4437 509.0802,942.3460 508.4772,944.4104 507.2147,948.2805 504.9197,954.1154 498.8340,968.8995 360.4055,899.0028 305.7766,873.8565 313.7887,858.9082 317.5800,850.6290 308.5878,845.5790 307.2856,842.0293 304.1898,826.9097 302.6581,820.1085 302.5211,817.3331 302.4835,816.5667 299.2825,801.8462 298.4193,798.7504 297.2615,793.3207 295.5626,781.2167 295.0294,767.8372" opacity="1.0" stroke="black" stroke-width="1" fill="none"/>
    <polyline points="49.7201,448.2113 111.2033,489.9777 142.7153,502.8277 218.7502,518.5523 237.0741,524.9715 256.0898,535.7343 267.8974,546.0947 281.0628,563.0719 289.5467,579.3675 294.5994,593.6716 297.4059,608.8381 301.7372,648.4212 313.6538,676.2017 323.2029,680.4607 308.9448,697.7105 305.4566,701.9656 304.9541,704.6023 303.6270,713.5369 295.2373,763.6171 295.1051,764.9557 295.0294,767.8372 295.5626,781.2167 297.2615,793.3207 298.4193,798.7504 299.2825,801.8462 302.4835,816.5667 302.5211,817.3331 302.6581,820.1085 304.1898,826.9097 307.2856,842.0293 308.5878,845.5790 317.5800,850.6290 313.7887,858.9082 305.7766,873.8565 291.3111,864.7515 256.8848,843.0147 243.0572,833.6466 221.2446,818.8688 202.9011,803.4815 173.5915,775.1298 142.9396,739.0542 122.6639,709.9372 114.7005,713.9152 114.7069,711.6859 114.6217,710.5880 114.5022,709.7181 113.4872,705.6668 111.6079,697.8508 109.6271,690.0148 107.6146,681.8284 105.7459,674.1261 103.8603,666.5902 101.9625,658.7319 99.9056,650.7930 97.9893,642.9779 96.0064,634.9852 94.0626,627.2314 92.1368,619.4258 90.1634,611.5169 88.1800,603.5246 86.2177,595.8119 84.2919,588.0157 82.3925,580.1262 80.3916,572.2890 78.5018,564.4454 76.5649,556.5337 74.6459,548.7867 72.6625,540.8946 70.7261,533.1265 68.7982,525.2758 66.8148,517.4567 64.8863,509.5641 62.9674,501.8678 61.0025,493.9333 58.9815,486.0928 57.1186,478.0447 54.9860,469.7575 52.9835,461.6883 51.2587,454.7384 49.7201,448.2113" opacity="1.0" stroke="black" stroke-width="1" fill="none"/>
    <polyline points="397.2533,1093.6417 399.0595,1093.2239 403.9764,1095.7615 408.7287,1097.6932 412.9564,1098.7096 417.9505,1099.1980 422.7880,1098.8833 427.2716,1097.9609 431.8679,1096.4000 436.1527,1094.3824 440.2524,1091.8602 444.3668,1088.5665 448.3750,1084.5041 451.2608,1080.7953 454.0852,1076.2942 463.0197,1055.6268 467.7033,1044.1930 471.4200,1035.1611 482.8405,1007.5677 494.3953,979.4995 498.8340,968.8995 607.4752,1025.6315 617.3152,1030.4316 628.8531,1033.5728 639.0702,1034.8201 647.4182,1033.9201 676.5283,1026.9331 683.3847,1025.6333 685.0117,1025.3746 677.4592,1063.8787 665.9690,1119.1047 663.9051,1132.4473 662.7198,1146.1965 662.7722,1161.3630 663.4026,1170.7323 639.5330,1157.4921 626.2164,1150.6679 579.7058,1127.4250 557.1019,1116.0870 551.6635,1113.1182 543.4938,1129.2860 528.6307,1160.4986 522.3587,1174.0136 520.4224,1178.8455 518.6267,1183.6828 503.9687,1176.3111 488.9379,1166.8162 458.6805,1146.1060 444.0786,1132.2475 420.9584,1112.7926 414.4675,1106.8902 406.2936,1100.3284 397.2533,1093.6417" opacity="1.0" stroke="black" stroke-width="1" fill="none"/>
    <polyline points="440.3269,1622.5454 440.7998,1619.5863 441.3393,1616.6877 442.1200,1612.3718 442.7859,1608.7279 444.0410,1602.9820 444.6276,1600.1754 445.7648,1594.8233 446.5079,1591.7890 447.6287,1586.7258 448.5099,1583.5560 449.6243,1578.8441 450.8302,1574.1520 452.6016,1567.6667 454.1640,1561.9076 457.3407,1551.2981 459.5495,1544.4303 461.1500,1539.6286 463.5984,1531.5274 465.4295,1526.4771 468.5036,1517.3077 474.8607,1501.0827 477.6333,1493.7362 480.6158,1486.0678 483.5550,1478.6777 486.3906,1471.1645 489.2552,1463.6829 492.0035,1456.5634 493.2602,1452.9020 494.2435,1449.5956 495.2024,1445.8149 495.8990,1442.5636 496.5617,1438.8587 497.1525,1435.2676 497.5730,1431.3503 497.8840,1427.6290 497.9607,1423.6637 497.9956,1420.1014 497.8629,1416.4795 497.5725,1412.8295 497.2646,1409.2716 496.7632,1405.8818 496.2597,1403.0713 495.6663,1400.5499 495.2489,1398.8419 494.5867,1395.9490 493.3374,1391.8985 492.3764,1388.8665 490.8901,1385.1810 489.6794,1381.6157 488.2080,1378.5519 486.5344,1375.1049 483.9232,1370.5779 481.8234,1367.1679 479.6431,1364.2126 479.2983,1363.7462 476.8896,1360.8287 476.1454,1359.8951 472.8153,1356.2808 471.0947,1354.4316 467.4880,1350.9673 466.7677,1350.3843 464.9059,1349.0177 464.4785,1348.7041 462.6125,1347.2851 467.4309,1339.9025 473.4278,1343.5080 482.3163,1335.2604 481.5372,1333.1634 480.8443,1328.3251 477.6893,1315.4620 517.1764,1254.1430 513.7738,1238.9743 512.5610,1233.2480 511.9401,1229.1028 511.6174,1226.3129 511.4260,1223.3846 511.3265,1220.3975 511.4011,1216.3028 511.5883,1213.6321 511.9840,1209.5347 513.3126,1202.4275 515.1675,1194.7830 517.2795,1187.6638 518.6267,1183.6828 606.1613,1238.0747 649.1858,1264.1007 677.3809,1281.1561 771.3515,1338.0009 769.3210,1342.2589 768.3229,1345.3825 766.8039,1408.7014 765.3181,1420.5894 764.3068,1421.8473 762.5349,1422.3742 761.2941,1423.3059 758.7251,1435.2369 757.8154,1437.0641 756.5957,1438.6825 752.2009,1457.1652 725.4910,1491.7376 723.4187,1496.3157 710.4242,1518.9548 707.5669,1530.7902 702.5284,1548.1163 704.4394,1557.5497 705.8146,1566.4743 698.9164,1566.8907 699.1211,1569.2232 699.4734,1572.7744 699.7326,1574.7970 699.8992,1576.8811 699.9362,1578.9046 699.6770,1582.4548 699.1407,1586.8107 698.8445,1588.2344 697.5561,1586.2488 697.1155,1586.5713 695.0929,1588.3572 694.3450,1588.9778 692.9032,1587.8559 691.3434,1587.6870 688.6670,1579.1286 687.8266,1576.4430 685.0185,1572.4167 678.7138,1574.7446 670.0200,1577.9317 669.6005,1578.1783 669.1811,1578.4249 668.7437,1578.6273 672.5937,1587.8017 677.6242,1599.1628 679.7680,1603.9160 682.3353,1609.4957 684.9360,1615.1458 682.5792,1619.7236 682.0899,1619.6224 673.3627,1617.4789 669.0706,1616.4844 663.6803,1615.6074 658.2414,1614.8784 652.5767,1614.1187 635.8528,1611.8804 632.8321,1611.5877 612.6718,1627.6579 612.3883,1627.8051 608.1644,1630.0000 606.1397,1625.5108 605.4595,1624.3826 604.4783,1622.7568 602.4949,1620.4146 601.2397,1617.9604 600.2877,1616.0075 599.7815,1615.0762 599.1442,1614.2822 598.2487,1614.6282 597.7399,1614.6914 596.8947,1615.4303 595.8601,1615.9325 593.8819,1616.6479 593.5889,1616.7581 581.9770,1621.1634 585.6408,1598.3995 585.8180,1597.2984 586.6056,1587.9191 587.2366,1587.8758 587.0298,1576.0663 586.9732,1566.0162 585.5911,1563.7189 573.3202,1558.8885 573.2503,1559.2860 572.9436,1562.0531 572.2279,1564.0993 571.3256,1565.9395 570.2561,1567.4300 569.2401,1568.5285 568.6191,1569.2549 564.8807,1572.3209 560.0020,1576.1584 557.1564,1578.3987 554.0833,1578.9263 548.0293,1579.7339 545.1954,1579.9100 542.1763,1580.0880 538.7701,1580.7402 537.4768,1581.5912 535.2035,1583.2723 532.3405,1585.6987 530.5110,1587.2326 526.4859,1591.2732 522.9220,1594.6932 517.0854,1599.7518 511.5941,1602.9522 509.4674,1604.0136 507.6183,1604.8880 505.8421,1605.7199 503.9560,1606.4706 500.2901,1607.6521 498.9032,1608.2139 497.2202,1608.8173 494.9453,1609.5463 487.9186,1612.6238 484.4981,1614.4304 482.7426,1615.4466 480.8935,1616.5052 479.3237,1617.6036 477.5687,1618.9919 474.0043,1622.2013 471.9500,1624.5696 470.8398,1625.8324 469.9639,1618.6695 447.8032,1621.5645 440.3269,1622.5454" opacity="1.0" stroke="black" stroke-width="1" fill="none"/>
    <polyline points="0.0000,291.7690 0.3406,282.9918 0.9235,274.2506 1.6724,265.6034 2.7414,257.5133 4.0193,249.1349 6.4237,239.7389 8.8113,231.9972 11.4776,224.5036 14.2459,216.8966 17.3316,209.2370 20.6982,201.9496 24.4858,194.2525 28.5294,186.9758 32.6962,180.0307 36.3971,172.8914 39.6875,165.4757 41.3219,161.4048 42.4400,158.3625 44.8667,151.0843 46.7380,144.1631 48.1809,137.2743 49.4170,129.8281 50.2812,122.3618 50.8202,114.9715 50.9868,107.4995 50.7991,99.8733 50.2215,92.3639 49.3202,85.0946 48.2174,78.2094 46.9327,70.9317 44.8371,63.3475 55.0209,57.1790 56.5574,56.2236 57.9823,56.0224 58.7017,55.9208 59.2512,55.8438 66.6899,54.7941 82.2280,52.6013 96.2883,54.8240 107.1476,56.5708 118.2422,58.3556 127.3285,59.8168 127.5681,59.8549 132.4908,51.3595 134.2119,47.9665 135.4659,43.7133 137.3230,36.3579 138.4945,30.2281 139.0425,24.8125 139.3609,17.6309 138.6918,12.3783 138.1883,9.8943 144.5163,8.2888 144.4724,8.0495 144.9357,7.9552 145.8867,7.7612 147.9490,7.3414 150.7295,6.5292 154.1987,5.2627 158.2111,3.7968 164.7612,1.9192 164.8168,2.1558 169.3549,0.8286 175.8595,0.0000 182.3785,0.4868 183.9076,0.5313 189.0942,0.6827 195.7538,1.4279 203.9685,2.2873 216.8646,3.6354 224.8084,4.4658 225.9514,4.5519 227.0294,4.6408 228.9356,4.7904 248.6564,7.4294 255.2906,7.6370 261.1162,7.8183 261.7503,7.8382 266.5074,8.8327 273.3136,16.6835 273.9113,17.3725 275.7445,18.8058 283.4921,24.8687 288.4989,28.7858 293.3739,33.0718 297.8459,37.0043 299.7278,38.7021 307.5775,45.7846 310.7357,48.7144 327.5961,55.0833 327.7733,55.1803 318.2797,77.8151 318.3712,78.7787 318.9826,88.4773 328.3287,95.0794 341.1761,104.1541 357.0559,115.3703 357.4531,144.9814 358.1121,145.0965 358.2639,145.1292 358.4046,145.1591 359.0949,145.2805 359.0600,145.5225 388.8080,150.9121 404.0340,153.5784 404.7253,153.6998 417.1074,155.8676 422.3474,156.7150 427.7762,157.8124 427.6942,158.4659 427.9042,158.9271 427.9687,159.0413 428.5796,160.2113 438.1261,176.5743 439.8239,179.5431 442.9213,184.9613 447.0971,192.2644 449.7772,196.6766 453.1337,202.1997 454.0752,203.7474 459.6621,210.8998 460.8522,212.4221 474.9781,230.0862 480.6232,237.2988 484.8689,242.7226 486.2293,244.5411 493.1740,253.5049 500.3588,262.8318 501.1205,263.8203 507.4252,272.0063 514.6666,281.4063 514.7439,281.5068 518.1189,285.8529 522.8348,291.9258 527.4078,297.8146 531.8560,303.5431 534.6974,307.2013 536.1858,309.7633 536.5692,310.4238 536.8279,310.7218 538.6611,312.8327 542.9972,318.6144 543.3082,319.0284 488.8194,321.5695 359.8444,327.5857 247.2643,332.9179 246.8872,348.6214 248.0264,354.8338 246.5814,355.2061 247.2484,361.5035 246.5545,403.3596 249.7349,419.4619 247.3817,419.7182 246.8856,432.1690 268.8294,455.3678 274.6274,460.8071 281.2960,466.4664 294.8311,476.5414 299.8945,480.3178 302.0323,482.0430 305.5571,485.9144 313.6776,497.2730 316.1402,499.9915 318.7499,502.6439 322.6306,505.8921 267.8974,546.0947 256.0898,535.7343 237.0741,524.9715 218.7502,518.5523 142.7153,502.8277 111.2033,489.9777 49.7201,448.2113 49.4329,447.2486 47.8651,441.4985 47.5224,440.2142 45.2401,433.2939 42.6796,426.6216 39.5146,419.5552 35.9592,412.5919 31.9584,405.8568 28.0037,398.9006 24.0928,392.0094 20.1111,383.9199 17.9605,379.3120 17.7648,378.8927 17.5713,378.4769 17.3766,378.0620 17.2031,377.6897 16.3442,375.8473 15.4492,373.5031 13.2743,367.8064 10.4927,359.8739 7.9677,351.5817 5.6467,343.2930 3.9098,335.2315 2.3669,326.6435 1.2615,317.9585 0.5226,309.1446 0.0423,300.4374 0.0000,291.7690" opacity="1.0" stroke="black" stroke-width="1" fill="none"/>
    <polyline points="246.5545,403.3596 247.2484,361.5035 246.5814,355.2061 248.0264,354.8338 246.8872,348.6214 247.2643,332.9179 359.8444,327.5857 360.8382,505.0191 361.0133,536.0476 351.4917,529.1369 346.9102,525.7992 338.3491,518.7642 322.6306,505.8921 318.7499,502.6439 316.1402,499.9915 313.6776,497.2730 305.5571,485.9144 302.0323,482.0430 299.8945,480.3178 294.8311,476.5414 281.2960,466.4664 274.6274,460.8071 268.8294,455.3678 246.8856,432.1690 247.3817,419.7182 249.7349,419.4619 246.5545,403.3596" opacity="1.0" stroke="black" stroke-width="1" fill="none"/>
    <polyline points="283.8666,1005.3326 289.3663,997.1538 291.1821,997.5889 295.4917,999.2949 296.3454,999.3772 297.1007,999.0316 297.7957,998.3143 307.3935,981.7275 314.3588,969.3111 319.0197,962.1702 320.4790,959.2926 323.0199,954.0204 324.1618,951.0496 324.9420,948.6695 325.8464,945.3902 327.0132,938.2497 327.5808,929.8164 327.3681,921.0047 326.8149,917.3714 325.9512,913.0849 324.9563,909.5692 323.3600,905.2102 321.6225,901.2303 319.6221,897.9117 317.0754,894.6175 314.6497,891.8752 312.2024,889.6051 309.8508,887.8046 305.0440,884.5049 301.2739,882.1299 305.7766,873.8565 360.4055,899.0028 498.8340,968.8995 494.3953,979.4995 482.8405,1007.5677 471.4200,1035.1611 467.7033,1044.1930 463.0197,1055.6268 454.0852,1076.2942 451.2608,1080.7953 448.3750,1084.5041 444.3668,1088.5665 440.2524,1091.8602 436.1527,1094.3824 431.8679,1096.4000 427.2716,1097.9609 422.7880,1098.8833 417.9505,1099.1980 412.9564,1098.7096 408.7287,1097.6932 403.9764,1095.7615 399.0595,1093.2239 397.2533,1093.6417 371.1172,1077.0204 283.8666,1005.3326" opacity="1.0" stroke="black" stroke-width="1" fill="none"/>
    <polyline points="518.6267,1183.6828 520.4224,1178.8455 522.3587,1174.0136 528.6307,1160.4986 543.4938,1129.2860 551.6635,1113.1182 557.1019,1116.0870 579.7058,1127.4250 626.2164,1150.6679 639.5330,1157.4921 663.4026,1170.7323 662.7722,1161.3630 662.7198,1146.1965 663.9051,1132.4473 665.9690,1119.1047 677.4592,1063.8787 685.0117,1025.3746 691.2170,1024.2648 693.3988,1023.6606 695.8418,1023.1994 697.6380,1022.9108 699.9166,1022.6784 703.6413,1022.4088 706.2346,1022.1728 708.9966,1022.0796 712.3537,1022.1040 715.8969,1022.2903 718.3289,1022.5318 720.8370,1023.0610 727.7299,1024.4078 733.6596,1025.8486 737.7498,1026.9385 740.2785,1027.5924 744.1280,1028.7466 746.7514,1029.6673 748.8740,1030.5519 750.4571,1031.2782 752.3961,1032.3509 754.6704,1033.5647 756.3683,1034.6609 758.0143,1036.0673 760.3516,1038.1069 762.4360,1040.7271 765.5106,1044.2038 769.5653,1049.2388 772.8552,1053.9102 775.5533,1059.0085 776.8904,1061.4341 780.6880,1067.5777 783.2284,1071.8727 785.2468,1075.9243 786.2850,1078.1048 789.1153,1083.9470 791.9667,1090.0379 794.4664,1096.2969 797.1512,1102.5341 799.5779,1108.8761 802.1701,1115.0932 802.4584,1115.8338 804.5576,1121.2288 806.9066,1127.2405 807.6820,1129.0111 808.5711,1131.2139 809.6675,1133.6843 810.3477,1134.8843 810.7962,1135.6764 811.9636,1137.7327 813.0151,1139.3757 814.1803,1141.1417 815.4719,1142.5759 816.7810,1143.8852 817.6040,1144.7452 818.8369,1145.8076 820.6627,1146.7607 820.2153,1148.8115 819.9513,1149.7908 819.5599,1151.2484 819.5372,1151.3334 823.2803,1155.4160 828.0189,1160.5854 842.8514,1173.3725 846.0424,1176.9395 848.1428,1178.4820 850.9677,1180.1249 852.1213,1180.7352 857.2079,1183.1005 860.7178,1184.6602 862.7420,1185.5616 866.0462,1186.5643 869.4053,1187.3591 873.0988,1188.0707 876.3638,1188.4115 878.1838,1188.5236 881.2082,1188.4197 883.1911,1188.2009 885.7643,1187.5029 888.1889,1186.7027 890.5939,1185.6756 892.7577,1184.6502 896.2343,1182.8925 897.9723,1181.9115 899.3205,1180.8491 900.8888,1179.4766 903.4720,1177.0435 906.2446,1178.8446 922.4724,1183.0399 924.5527,1183.6105 925.5010,1183.9332 926.8021,1184.4830 927.6204,1184.8067 928.3080,1185.0508 929.0702,1185.2723 930.0000,1185.5969 927.8711,1189.7225 919.0450,1206.6886 913.6431,1217.5360 913.3834,1218.1029 913.0952,1218.6345 907.1089,1215.0633 896.6585,1208.6252 853.0829,1290.9721 779.4895,1244.1056 771.6927,1259.1341 771.0357,1260.6582 770.7380,1262.8631 769.1422,1317.6900 772.6839,1328.0702 773.0668,1329.4413 773.2181,1331.2165 773.2085,1332.8851 772.8113,1334.8247 772.4718,1335.8994 771.3515,1338.0009 677.3809,1281.1561 649.1858,1264.1007 606.1613,1238.0747 518.6267,1183.6828" opacity="1.0" stroke="black" stroke-width="1" fill="none"/>
    <polyline points="581.0593,732.4698 597.3871,718.0362 602.8159,713.4237 606.4120,710.6160 609.6067,708.4166 614.5400,705.1273 687.4050,659.9839 737.9666,628.6373 748.7026,622.0911 750.8643,623.9940 771.7895,632.6088 774.5700,736.2340 741.8732,738.8506 730.2581,748.5275 721.3411,754.4945 716.9896,755.7018 716.5364,755.9651 714.5963,758.2621 713.4210,759.4106 711.1006,760.4269 665.3766,791.8483 664.5885,792.6863 660.5380,799.2038 654.2190,796.0329 647.5102,823.2413 646.9257,823.0666 646.6094,824.4231 647.3478,826.3405 647.5245,827.8218 647.3716,829.3058 646.8078,830.7908 645.6822,832.2549 644.6561,832.9996 639.7710,823.5091 636.8911,816.9667 633.7784,809.0857 631.2797,801.4870 628.2644,790.7063 623.4623,770.9658 620.9208,762.2569 616.2563,759.2305 608.8773,755.5081 605.1352,753.4808 603.6442,752.2337 602.4446,750.5747 597.0428,740.9187 595.8352,739.4108 594.4204,738.2551 592.7442,737.3943 581.0593,732.4698" opacity="1.0" stroke="black" stroke-width="1" fill="none"/>
    <polyline points="267.8974,546.0947 322.6306,505.8921 338.3491,518.7642 346.9102,525.7992 351.4917,529.1369 361.0133,536.0476 360.8382,505.0191 359.8444,327.5857 488.8194,321.5695 543.3082,319.0284 543.6218,319.4424 544.5686,320.6926 553.8051,332.8898 573.5169,358.3911 573.4968,358.4481 573.4270,358.6492 573.4905,358.7335 581.3248,369.1216 588.2875,378.3519 572.8410,515.8684 570.8454,538.3258 510.1560,537.5262 505.9109,549.3788 505.7617,550.3785 505.7903,551.7611 506.2642,554.0591 502.4475,555.0379 499.6776,557.5514 463.4931,605.5046 462.1232,607.3343 457.4476,614.3289 454.0075,620.7521 452.2060,624.8903 448.2264,635.3093 439.9303,657.0048 438.8491,660.0572 438.0547,662.7059 437.4660,665.1174 434.9843,676.7358 433.4362,683.9882 445.8531,684.6109 454.4676,685.4265 458.9798,685.9488 457.3069,689.4002 419.9762,715.8956 438.7322,741.8391 429.1852,733.2744 426.2497,730.8316 422.7499,728.3734 417.7912,725.2970 414.1364,723.3881 362.9010,700.3997 358.6961,711.3338 347.5570,706.3538 336.8601,710.3906 324.8669,716.4405 315.2220,717.4542 309.4991,717.7384 311.2816,705.9030 311.3133,704.3661 310.9505,702.8735 310.2486,701.0822 308.9448,697.7105 323.2029,680.4607 313.6538,676.2017 301.7372,648.4212 297.4059,608.8381 294.5994,593.6716 289.5467,579.3675 281.0628,563.0719 267.8974,546.0947" opacity="1.0" stroke="black" stroke-width="1" fill="none"/>
    <polyline points="644.6561,832.9996 645.6822,832.2549 646.8078,830.7908 647.3716,829.3058 647.5245,827.8218 647.3478,826.3405 646.6094,824.4231 646.9257,823.0666 647.5102,823.2413 654.2190,796.0329 660.5380,799.2038 664.5885,792.6863 665.3766,791.8483 711.1006,760.4269 713.4210,759.4106 714.5963,758.2621 716.5364,755.9651 716.9896,755.7018 721.3411,754.4945 730.2581,748.5275 741.8732,738.8506 774.5700,736.2340 771.7895,632.6088 775.5369,634.1143 789.8373,639.8583 794.8223,641.4960 808.5314,646.0005 822.2230,637.9672 828.1993,631.6791 830.3435,628.6265 837.3639,633.7812 840.4211,624.2919 853.9027,631.0173 854.3570,629.4548 872.6873,635.9973 883.9924,640.0946 883.8729,640.3915 893.8679,644.2806 894.1567,644.8436 892.9851,660.1106 891.2661,684.2977 890.6436,693.5006 890.8943,693.9351 905.9167,705.9627 904.4817,706.8534 901.9382,706.9358 899.5908,707.5639 893.7732,711.8407 891.6634,714.0356 884.4367,727.1678 885.1439,727.6765 884.5488,728.7490 884.3531,729.1020 892.5990,735.6810 896.4046,739.6570 897.0372,740.0516 894.4920,741.4264 888.7961,744.6475 888.7099,745.0557 901.8387,771.8573 907.9107,784.3697 914.3582,797.2708 901.9138,804.7846 896.4162,808.1645 892.8608,810.0440 888.6379,812.0738 886.9523,812.8891 882.8944,814.6275 877.7443,816.8481 874.9659,818.1249 870.9128,820.0705 867.6446,821.9436 864.1754,824.1706 856.5563,829.2715 850.6705,833.1977 846.9458,835.8816 844.1986,837.9348 841.8401,839.8612 840.6046,840.8032 836.9561,843.6933 834.6891,845.4731 845.4045,867.4234 829.8315,872.1682 817.7166,875.9928 813.9454,877.3047 811.3389,878.2502 810.6926,878.5696 809.8627,879.0148 808.9969,879.6047 808.2241,880.2353 807.5259,880.8858 806.8299,881.6802 806.0048,882.6836 805.5123,883.3939 804.8168,884.3538 804.4889,884.8958 798.0731,883.6816 796.0293,885.1564 790.8152,888.6388 788.6747,889.5861 786.8584,890.4040 783.9641,891.7096 777.5155,890.9505 774.5647,890.6175 772.8214,890.5687 771.6165,890.6402 770.0604,890.8166 767.7633,891.1034 765.7629,891.3875 763.5780,891.7349 761.9664,892.0371 759.3932,892.5528 756.6719,893.2757 754.1732,893.8955 752.0999,894.4076 750.1016,894.9396 747.7696,895.5982 745.4746,896.2153 742.7544,897.0431 740.4785,897.9578 733.9992,901.7333 732.8244,901.2547 713.6437,893.8475 705.0107,891.5422 695.6070,887.7522 690.1200,884.7149 684.4790,881.0587 679.3633,877.1283 673.5442,872.0080 665.4982,863.6069 657.9616,854.4175 654.4946,849.4255 648.5342,839.8295 644.6561,832.9996" opacity="1.0" stroke="black" stroke-width="1" fill="none"/>
  </g>
</svg>