<?xml version="1.0" encoding="UTF-8"?>
<!DOCTYPE svg PUBLIC "-//W3C//DTD SVG 1.1//EN"
    "http://www.w3.org/Graphics/SVG/1.1/DTD/svg11.dtd">
<svg xmlns="http://www.w3.org/2000/svg" viewBox="0.0 0.0 930.0 1630.0" xmlns:xlink="http://www.w3.org/1999/xlink" version="1.11.1">
  <g>
    <polyline points="487.8118,844.6675 494.8588,840.8538 496.6778,839.8778 499.6283,837.6219 500.7325,838.5235 504.7069,837.9943 514.2941,836.7189 548.4682,806.8443 590.2116,818.2669 641.5623,834.1338 645.2570,832.0531 649.1404,838.8794 655.1086,848.4701 658.5799,853.4591 666.1252,862.6424 674.1798,871.0373 680.0048,876.1530 685.1254,880.0795 690.7714,883.7313 696.2632,886.7644 705.6742,890.5470 714.3133,892.8453 733.5093,900.2367 734.6850,900.7143 731.9583,906.3753 726.6592,917.6719 723.4816,924.5982 721.5274,927.6175 719.0562,932.6893 705.3833,961.0148 698.9048,977.1925 697.7442,980.1749 695.4513,987.3424 694.7507,989.6576 693.7872,993.0363 692.6691,997.2177 691.4054,1003.3746 690.4847,1007.6401 689.7070,1012.0656 688.5762,1012.5108 685.7383,1024.4287 684.1103,1024.6887 677.2496,1025.9943 648.1215,1033.0060 639.7678,1033.9122 629.5425,1032.6712 617.9946,1029.5360 608.1451,1024.7400 499.4070,968.0439 505.4921,953.2533 507.7867,947.4161 509.0488,943.5446 509.6515,941.4795 510.7429,936.5757 511.4017,931.4044 511.6274,927.1317 511.5907,923.3794 511.3988,920.5094 511.1121,917.7652 510.7960,915.5721 510.2818,912.8416 509.0529,907.9326 507.4160,902.8800 499.6407,880.2056 495.4945,868.1693 491.5983,856.5374 487.8118,844.6675" opacity="1.0" stroke="black" stroke-width="1" fill="none"/>
    <polyline points="703.5704,1547.8305 708.6060,1530.4641 711.4603,1518.6022 724.4592,1495.9073 726.5316,1491.3184 753.2556,1456.6576 757.6441,1438.1376 758.8643,1436.5152 759.7741,1434.6840 762.3385,1422.7299 763.5803,1421.7954 765.3541,1421.2661 766.3658,1420.0050 767.8455,1408.0955 769.3242,1344.6755 770.3213,1341.5463 772.3514,1337.2802 773.4715,1335.1746 773.8107,1334.0981 774.2071,1332.1552 774.2155,1330.4843 774.0629,1328.7067 773.6786,1327.3340 770.1259,1316.9426 771.6867,1262.0429 771.9833,1259.8351 772.6399,1258.3085 780.4346,1243.2549 854.1404,1290.1039 897.6943,1207.6111 908.1605,1214.0437 914.1558,1217.6115 913.7387,1218.4238 913.6161,1218.6548 911.2214,1223.5070 908.7024,1228.6300 898.2725,1249.2672 897.6847,1250.4156 897.3871,1250.9716 893.7948,1258.0835 892.1778,1261.2895 887.0655,1271.4234 881.2417,1282.9685 879.9103,1286.6393 879.6423,1287.1755 872.5744,1301.3432 872.1462,1302.2009 870.8198,1304.8598 869.7919,1306.7500 866.4246,1313.1503 867.6757,1313.0078 870.6153,1312.6207 876.5918,1316.3902 877.3203,1314.9828 884.2107,1319.2871 882.7778,1321.8647 886.1928,1321.9332 886.2152,1327.9923 886.3317,1329.2747 886.7161,1334.2843 887.1815,1334.2892 895.1281,1334.2067 895.1383,1338.1188 895.1458,1340.7673 895.1642,1347.6393 905.2573,1348.3398 905.3132,1348.6583 906.0916,1353.0756 906.6023,1355.8258 907.2893,1355.9273 909.9586,1370.0096 909.0871,1370.2206 910.0706,1375.2659 910.9983,1380.1673 911.9495,1381.4878 913.4491,1390.5253 913.8478,1392.9861 913.0505,1393.2595 915.9356,1410.4252 916.6213,1410.2777 918.3112,1420.0095 918.7211,1422.4450 916.3041,1426.2535 907.3688,1440.4910 907.2402,1441.8707 900.9104,1451.3471 900.1720,1452.4877 900.1926,1452.9837 900.2687,1453.4996 893.7929,1464.0535 896.7689,1465.9628 902.3297,1469.4126 893.8637,1483.5511 889.1163,1483.8590 885.7062,1484.0657 877.5199,1486.3536 866.7119,1494.7406 864.0497,1496.4536 853.9751,1503.0570 853.4710,1502.4601 847.9252,1506.0963 842.2937,1509.9173 842.6434,1512.9388 844.0973,1526.6971 844.5546,1533.1940 844.7010,1535.5740 844.6432,1538.1795 844.4178,1540.6214 843.9510,1543.8485 842.7205,1550.6335 842.8651,1554.8739 842.7705,1556.4466 842.6767,1558.4529 842.6188,1560.3769 842.5034,1564.5769 842.4825,1567.7012 842.5726,1570.5566 842.9217,1574.0319 843.6801,1580.8683 839.0355,1579.8783 834.1964,1578.8567 829.0961,1577.0631 824.0547,1575.3020 820.3955,1574.6095 817.3663,1574.0794 809.3948,1572.5411 803.5032,1570.6276 806.2574,1560.7820 800.1914,1560.7563 794.1992,1561.0619 788.0025,1561.3666 781.8060,1561.8180 775.7020,1562.1434 769.2034,1562.4256 763.0502,1562.6929 757.0204,1563.0198 744.6267,1563.9199 738.4496,1564.3291 719.8039,1565.2468 715.4320,1565.6080 711.1216,1565.9647 706.8720,1566.2252 705.4896,1557.2825 703.5704,1547.8305" opacity="1.0" stroke="black" stroke-width="1" fill="none"/>
    <polyline points="115.0672,717.1241 115.0760,713.1138 123.0428,709.1402 143.3194,738.2483 173.9771,774.3166 203.2956,802.6649 221.6459,818.0511 243.4679,832.8281 257.3018,842.1956 291.7454,863.9307 306.2187,873.0348 301.7139,881.3084 305.4862,883.6832 310.2958,886.9827 312.6487,888.7830 315.0975,891.0530 317.5246,893.7952 320.0730,897.0894 322.0747,900.4080 323.8135,904.3881 325.4110,908.7473 326.4067,912.2633 327.2712,916.5502 327.8250,920.1839 328.0384,928.9968 327.4711,937.4317 326.3041,944.5736 325.3993,947.8538 324.6188,950.2345 323.4764,953.2061 320.9342,958.4798 319.4741,961.3582 314.8106,968.5015 307.8412,980.9221 298.2375,997.5153 297.5420,998.2329 296.7862,998.5786 295.9320,998.4963 291.6193,996.7898 289.8022,996.3546 284.2988,1004.5367 265.8113,987.6725 262.0862,985.3632 257.5943,983.8040 251.6781,982.1451 247.2888,981.3939 243.6310,981.1819 238.5478,981.8385 233.2040,984.5193 223.6882,991.4280 223.4320,991.0308 223.0885,990.5086 222.8192,990.0978 222.5498,989.6879 222.1412,989.0770 220.1106,986.0437 218.9315,984.2293 215.7483,979.3291 211.4431,973.0697 207.1656,966.8718 203.0014,961.0041 198.1567,954.4479 193.5834,948.6652 188.8060,942.8527 187.8498,941.6862 183.8419,936.7940 178.7931,930.6313 173.7964,924.5074 172.6444,923.0875 169.9363,919.5871 168.6817,917.9646 167.3303,915.8850 166.0869,914.0679 165.8044,913.6553 165.3224,912.8662 164.8906,912.0879 164.3779,911.3911 164.0091,910.8916 162.3467,907.9343 161.2663,906.0014 159.7902,903.3600 156.4679,895.7427 155.8352,894.1193 153.4903,887.4523 152.2446,884.0301 150.7171,879.1330 150.3384,877.8717 149.7566,875.9326 148.4033,870.5108 147.7814,867.8624 147.1162,864.8828 146.4891,861.8725 145.7859,858.1366 145.0336,853.8306 144.5009,849.7753 144.0254,845.6902 142.8578,837.6006 141.7998,829.8439 141.5741,828.6469 141.0697,825.9723 140.4127,822.2582 139.5704,818.5106 138.7366,814.8652 136.8086,807.4487 134.8867,799.5563 133.0366,791.8522 131.0766,783.9798 130.5072,781.6011 129.1030,775.6831 128.0667,771.7763 127.0707,767.5819 125.1198,759.7097 123.2784,752.0356 121.4704,744.7887 118.5035,732.8960 118.2134,731.3145 116.1458,723.0480 115.5469,720.6722 115.2747,719.3803 115.1838,718.6665 115.1120,717.9419 115.0672,717.1241" opacity="1.0" stroke="black" stroke-width="1" fill="none"/>
    <polyline points="420.4477,715.0972 457.7836,688.6051 459.4562,685.1552 454.9426,684.6348 446.3255,683.8226 433.9051,683.2040 435.4521,675.9558 437.9318,664.3443 438.5201,661.9343 439.3142,659.2872 440.3949,656.2365 448.6879,634.5544 452.6658,624.1423 454.4666,620.0069 457.9058,613.5879 462.5805,606.5976 463.9502,604.7690 500.1261,556.8470 502.8956,554.3348 506.7123,553.3554 506.2377,551.0600 506.2087,549.6788 506.3575,548.6801 510.5993,536.8383 571.2935,537.6066 573.2802,515.1731 588.6693,377.8361 593.1316,383.7381 594.4995,385.6003 594.5148,385.6509 626.0087,489.8726 642.8019,513.9420 677.0566,563.0995 704.0159,584.0780 725.2751,597.8755 737.1208,609.3315 749.2179,621.1634 738.4839,627.7139 687.9298,659.0788 615.0679,704.2457 610.1347,707.5363 606.9400,709.7366 603.3440,712.5450 597.9155,717.1584 581.5885,731.5947 593.2795,736.5101 594.9566,737.3694 596.3724,738.5238 597.5810,740.0302 602.9890,749.6789 604.1898,751.3364 605.6819,752.5821 609.4263,754.6063 616.8097,758.3225 621.4774,761.3448 624.0240,770.0489 628.8373,789.7800 631.8591,800.5559 634.3625,808.1511 637.4804,816.0283 640.3649,822.5675 645.2570,832.0531 641.5623,834.1338 590.2116,818.2669 548.4682,806.8443 514.2941,836.7189 504.7069,837.9943 500.7325,838.5235 499.6283,837.6219 496.6778,839.8778 494.8588,840.8538 487.8118,844.6675 469.6520,790.6855 466.8674,783.5773 463.7502,777.1406 461.9683,773.5649 457.6388,766.5713 453.5325,760.8831 439.2154,741.0228 420.4477,715.0972" opacity="1.0" stroke="black" stroke-width="1" fill="none"/>
    <polyline points="223.6882,991.4280 233.2040,984.5193 238.5478,981.8385 243.6310,981.1819 247.2888,981.3939 251.6781,982.1451 257.5943,983.8040 262.0862,985.3632 265.8113,987.6725 284.2988,1004.5367 371.6204,1076.2525 369.2823,1096.7764 369.3631,1099.6731 369.8579,1102.3635 364.3810,1105.9237 344.7908,1123.6615 340.2438,1127.1426 335.5595,1130.1025 324.1210,1136.2160 321.5949,1137.6018 293.1709,1137.1257 293.0985,1140.7855 293.0244,1143.4036 292.8196,1147.4572 292.6445,1149.0590 292.4698,1150.0953 292.1717,1151.0645 296.2482,1152.3232 294.6950,1156.8257 287.6813,1175.4539 279.9398,1195.2255 271.6690,1191.5564 259.1821,1185.4780 271.5072,1151.6024 271.3479,1136.8925 246.4847,1135.9352 249.0455,1133.1380 251.2351,1130.4041 253.5444,1127.1842 255.1580,1124.6368 256.9008,1121.4368 258.3836,1118.3101 259.7548,1114.7907 260.7178,1111.8613 261.6903,1108.3419 262.4113,1105.0813 263.0482,1101.4180 263.5183,1098.0652 263.7116,1095.8190 263.8112,1093.6046 263.8742,1091.1630 263.7313,1087.5414 263.4683,1084.0962 262.8141,1080.4746 262.0587,1077.2159 261.1727,1073.6268 260.0913,1069.7998 257.6782,1062.5901 254.9719,1055.2067 252.1122,1047.9563 249.1884,1040.7268 248.3210,1038.4482 248.0166,1037.6482 246.0668,1032.9281 244.9146,1030.1925 244.2848,1028.7328 242.8537,1025.4108 241.3659,1022.3748 239.2325,1018.0293 237.3245,1014.4585 235.5653,1011.1039 231.8458,1004.7685 230.7524,1002.9315 228.3602,999.0113 227.0414,996.8187 226.6968,996.2459 224.5508,992.8135 224.3486,992.4895 223.6882,991.4280" opacity="1.0" stroke="black" stroke-width="1" fill="none"/>
    <polyline points="145.1143,1236.4931 145.1452,1235.6658 145.2264,1234.2159 145.3486,1231.8564 145.4994,1229.2996 145.7429,1226.7963 145.9819,1225.3582 146.3259,1223.2069 146.7816,1221.1552 147.3735,1217.9406 147.7444,1216.4573 148.9443,1212.4418 149.8698,1209.0897 150.6468,1207.0852 151.7883,1204.0219 153.2813,1200.7604 155.6370,1195.9380 157.4195,1192.8486 157.4285,1192.8350 157.8988,1192.1509 160.2712,1188.4471 162.4079,1185.4691 168.0318,1178.7992 169.7961,1177.0664 173.4262,1173.7557 175.0528,1172.4075 178.2650,1170.2134 180.7518,1168.5649 181.5598,1168.1198 183.6479,1166.8440 185.7181,1165.6407 187.6574,1164.7279 188.9667,1164.0330 191.0177,1163.0478 193.2376,1162.1658 193.4452,1162.0762 196.5418,1160.7436 203.0130,1158.3046 209.8086,1155.5967 216.5767,1153.0010 223.3633,1150.2306 226.9193,1148.7676 230.0196,1147.3053 233.1759,1145.7191 235.7653,1144.2252 238.5965,1142.4633 241.3722,1140.5558 243.5222,1138.7459 243.8965,1138.4319 246.4847,1135.9352 271.3479,1136.8925 271.5072,1151.6024 259.1821,1185.4780 271.6690,1191.5564 279.9398,1195.2255 287.6813,1175.4539 294.6950,1156.8257 296.2482,1152.3232 292.1717,1151.0645 292.4698,1150.0953 292.6445,1149.0590 292.8196,1147.4572 293.0244,1143.4036 293.0985,1140.7855 293.1709,1137.1257 321.5949,1137.6018 324.1210,1136.2160 335.5595,1130.1025 340.2438,1127.1426 344.7908,1123.6615 364.3810,1105.9237 369.8579,1102.3635 369.3631,1099.6731 369.2823,1096.7764 371.6204,1076.2525 397.7802,1092.8792 406.8292,1099.5683 415.0112,1106.1327 421.5087,1112.0377 444.6530,1131.5006 459.2712,1145.3657 489.5617,1166.0827 504.6094,1175.5800 519.2835,1182.9522 517.9364,1186.9377 515.8247,1194.0649 513.9705,1201.7179 512.6428,1208.8331 512.2481,1212.9350 512.0615,1215.6086 511.9882,1219.7077 512.0887,1222.6980 512.2813,1225.6294 512.6052,1228.4223 513.2281,1232.5718 514.4440,1238.3040 517.8550,1253.4888 478.3436,1314.9031 481.5057,1327.7830 482.2008,1332.6280 482.9814,1334.7276 474.0848,1342.9906 468.0800,1339.3822 463.2579,1346.7773 462.4825,1346.1829 460.0324,1344.5417 456.6005,1342.3968 453.9996,1340.9204 450.6954,1339.2117 448.3245,1338.1815 444.7127,1336.6466 441.7386,1335.5822 438.3192,1334.4826 435.6126,1333.6986 431.8395,1332.7729 425.0327,1331.3510 418.0866,1330.0839 411.0829,1328.9715 403.9951,1328.0763 396.9342,1327.2325 389.8634,1326.5752 384.8170,1326.2630 382.7354,1326.1340 375.6816,1325.7978 368.6167,1325.6479 364.6617,1325.6785 361.4766,1325.7034 354.3360,1325.9046 351.9489,1326.0235 347.2590,1326.2930 340.0697,1326.8877 332.8518,1327.6570 325.6615,1328.3240 322.0072,1328.7298 320.4192,1328.9227 318.3387,1329.1003 317.3077,1329.2253 314.7258,1329.4500 311.1314,1329.8304 309.0975,1330.0378 303.9621,1330.5595 300.6103,1330.9788 296.6722,1331.3211 292.9104,1331.7240 289.3165,1332.0527 286.2786,1332.2510 281.8010,1332.5579 278.2801,1332.7616 274.0693,1332.8694 270.4548,1332.9598 266.4950,1332.9299 262.8036,1332.8556 258.7030,1332.6935 256.8718,1332.5921 255.5782,1332.5205 251.3372,1332.2859 248.0907,1331.9907 244.0351,1331.6203 240.5640,1331.2028 236.9432,1330.6621 233.7427,1330.2935 229.1348,1329.5355 225.6983,1328.8591 221.6385,1328.0332 218.4809,1327.3531 216.7516,1326.9420 215.6819,1326.6884 214.1495,1326.3244 210.3545,1325.0404 206.4844,1323.6333 202.9950,1322.1910 198.9909,1320.3303 195.7409,1318.5856 191.9101,1316.4218 188.2350,1313.9375 185.1202,1311.7773 178.8747,1306.6803 175.9040,1304.0214 173.7523,1302.1980 172.1333,1300.7604 169.9891,1298.5523 168.2706,1296.7508 166.8374,1295.2308 166.1815,1294.4405 163.6097,1290.9978 163.0808,1290.2908 160.9855,1287.4003 158.8379,1283.8165 156.6903,1280.2209 155.2733,1277.5107 154.0681,1275.0603 152.8258,1272.4750 151.8705,1270.1704 150.5675,1266.7262 149.5492,1263.8830 148.7522,1261.4454 147.7013,1257.7225 146.8891,1254.5391 146.3167,1251.7503 145.9184,1249.5328 145.6133,1247.2012 145.4464,1245.1611 145.3132,1243.7727 145.2389,1241.6919 145.1674,1239.0508 145.1143,1236.4931" opacity="1.0" stroke="black" stroke-width="1" fill="none"/>
    <polyline points="295.4629,767.0357 295.5385,764.1552 295.6707,762.8171 304.0617,712.7588 305.3888,703.8290 305.8913,701.1938 309.3804,696.9409 310.6847,700.3105 311.3869,702.1008 311.7499,703.5925 311.7182,705.1286 309.9358,716.9578 315.6605,716.6734 325.3084,715.6593 337.3049,709.6114 348.0047,705.5753 359.1477,710.5510 363.3526,699.6223 414.6075,722.5875 418.2638,724.4944 423.2247,727.5680 426.7262,730.0240 429.6633,732.4649 439.2154,741.0228 453.5325,760.8831 457.6388,766.5713 461.9683,773.5649 463.7502,777.1406 466.8674,783.5773 469.6520,790.6855 487.8118,844.6675 491.5983,856.5374 495.4945,868.1693 499.6407,880.2056 507.4160,902.8800 509.0529,907.9326 510.2818,912.8416 510.7960,915.5721 511.1121,917.7652 511.3988,920.5094 511.5907,923.3794 511.6274,927.1317 511.4017,931.4044 510.7429,936.5757 509.6515,941.4795 509.0488,943.5446 507.7867,947.4161 505.4921,953.2533 499.4070,968.0439 360.8795,898.1755 306.2187,873.0348 314.2342,858.0865 318.0269,849.8076 309.0301,844.7589 307.7271,841.2096 304.6292,826.0924 303.0965,819.2925 302.9593,816.5176 302.9217,815.7513 299.7187,801.0343 298.8551,797.9393 297.6966,792.5111 295.9967,780.4107 295.4629,767.0357" opacity="1.0" stroke="black" stroke-width="1" fill="none"/>
    <polyline points="50.1557,447.6376 111.6270,489.3721 143.1371,502.2152 219.1729,517.9349 237.4974,524.3484 256.5140,535.1003 268.3224,545.4499 281.4890,562.4095 289.9742,578.6891 295.0280,592.9798 297.8353,608.1327 302.1689,647.6842 314.0896,675.4449 323.6415,679.7003 309.3804,696.9409 305.8913,701.1938 305.3888,703.8290 304.0617,712.7588 295.6707,762.8171 295.5385,764.1552 295.4629,767.0357 295.9967,780.4107 297.6966,792.5111 298.8551,797.9393 299.7187,801.0343 302.9217,815.7513 302.9593,816.5176 303.0965,819.2925 304.6292,826.0924 307.7271,841.2096 309.0301,844.7589 318.0269,849.8076 314.2342,858.0865 306.2187,873.0348 291.7454,863.9307 257.3018,842.1956 243.4679,832.8281 221.6459,818.0511 203.2956,802.6649 173.9771,774.3166 143.3194,738.2483 123.0428,709.1402 115.0760,713.1138 115.0829,710.8856 114.9979,709.7883 114.8785,708.9189 113.8641,704.8694 111.9860,697.0573 110.0064,689.2253 107.9951,681.0432 106.1277,673.3453 104.2433,665.8138 102.3469,657.9603 100.2913,650.0263 98.3764,642.2163 96.3950,634.2291 94.4527,626.4807 92.5285,618.6808 90.5567,610.7779 88.5749,602.7917 86.6142,595.0852 84.6901,587.2954 82.7925,579.4126 80.7934,571.5822 78.9054,563.7456 76.9704,555.8412 75.0534,548.1015 73.0719,540.2170 71.1375,532.4566 69.2116,524.6139 67.2303,516.8029 65.3040,508.9186 63.3872,501.2307 61.4244,493.3050 59.4057,485.4734 57.5452,477.4347 55.4150,469.1572 53.4150,461.0978 51.6923,454.1564 50.1557,447.6376" opacity="1.0" stroke="black" stroke-width="1" fill="none"/>
    <polyline points="397.7802,1092.8792 399.5879,1092.4607 404.5092,1094.9988 409.2659,1096.9307 413.4972,1097.9467 418.4956,1098.4341 423.3370,1098.1178 427.8242,1097.1935 432.4240,1095.6302 436.7119,1093.6099 440.8144,1091.0848 444.9315,1087.7876 448.9420,1083.7213 451.8292,1080.0091 454.6549,1075.5042 463.5913,1054.8215 468.2755,1043.3798 471.9926,1034.3420 483.4138,1006.7319 494.9685,978.6489 499.4070,968.0439 608.1451,1024.7400 617.9946,1029.5360 629.5425,1032.6712 639.7678,1033.9122 648.1215,1033.0060 677.2496,1025.9943 684.1103,1024.6887 685.7383,1024.4287 678.2013,1062.9587 666.7312,1118.2303 664.6726,1131.5848 663.4935,1145.3462 663.5538,1160.5258 664.1898,1169.9032 640.2915,1156.6680 626.9595,1149.8469 580.3973,1126.6136 557.7694,1115.2795 552.3253,1112.3113 544.1545,1128.4957 529.2890,1159.7418 523.0159,1173.2721 521.0793,1178.1095 519.2835,1182.9522 504.6094,1175.5800 489.5617,1166.0827 459.2712,1145.3657 444.6530,1131.5006 421.5087,1112.0377 415.0112,1106.1327 406.8292,1099.5683 397.7802,1092.8792" opacity="1.0" stroke="black" stroke-width="1" fill="none"/>
    <polyline points="441.0081,1622.5728 441.4810,1619.6066 442.0207,1616.7010 442.8016,1612.3748 443.4677,1608.7223 444.7234,1602.9628 445.3102,1600.1496 446.4478,1594.7849 447.1914,1591.7435 448.3127,1586.6686 449.1944,1583.4914 450.3094,1578.7687 451.5160,1574.0659 453.2884,1567.5658 454.8517,1561.7937 458.0304,1551.1603 460.2407,1544.2772 461.8423,1539.4648 464.2920,1531.3459 466.1245,1526.2845 469.2005,1517.0954 475.5621,1500.8357 478.3364,1493.4737 481.3210,1485.7894 484.2621,1478.3840 487.0993,1470.8556 489.9656,1463.3588 492.7154,1456.2252 493.9727,1452.5565 494.9562,1449.2438 495.9153,1445.4559 496.6118,1442.1985 497.2743,1438.4867 497.8648,1434.8890 498.2846,1430.9647 498.5949,1427.2368 498.6705,1423.2646 498.7044,1419.6962 498.5703,1416.0681 498.2785,1412.4120 497.9692,1408.8483 497.4661,1405.4530 496.9611,1402.6380 496.3662,1400.1127 495.9479,1398.4021 495.2840,1395.5048 494.0319,1391.4482 493.0688,1388.4116 491.5796,1384.7208 490.3664,1381.1503 488.8923,1378.0823 487.2158,1374.6306 484.6001,1370.0975 482.4968,1366.6831 480.3131,1363.7240 479.9678,1363.2570 477.5554,1360.3360 476.8101,1359.4013 473.4751,1355.7827 471.7520,1353.9314 468.1401,1350.4632 467.4187,1349.8796 465.5544,1348.5117 465.1264,1348.1977 463.2579,1346.7773 468.0800,1339.3822 474.0848,1342.9906 482.9814,1334.7276 482.2008,1332.6280 481.5057,1327.7830 478.3436,1314.9031 517.8550,1253.4888 514.4440,1238.3040 513.2281,1232.5718 512.6052,1228.4223 512.2813,1225.6294 512.0887,1222.6980 511.9882,1219.7077 512.0615,1215.6086 512.2481,1212.9350 512.6428,1208.8331 513.9705,1201.7179 515.8247,1194.0649 517.9364,1186.9377 519.2835,1182.9522 606.9255,1237.3537 650.0070,1263.3817 678.2412,1280.4377 772.3514,1337.2802 770.3213,1341.5463 769.3242,1344.6755 767.8455,1408.0955 766.3658,1420.0050 765.3541,1421.2661 763.5803,1421.7954 762.3385,1422.7299 759.7741,1434.6840 758.8643,1436.5152 757.6441,1438.1376 753.2556,1456.6576 726.5316,1491.3184 724.4592,1495.9073 711.4603,1518.6022 708.6060,1530.4641 703.5704,1547.8305 705.4896,1557.2825 706.8720,1566.2252 699.9640,1566.6482 700.1703,1568.9856 700.5251,1572.5443 700.7858,1574.5711 700.9539,1576.6597 700.9921,1578.6876 700.7346,1582.2459 700.2000,1586.6120 699.9042,1588.0391 698.6127,1586.0501 698.1716,1586.3737 696.1470,1588.1652 695.3984,1588.7878 693.9537,1587.6644 692.3915,1587.4964 689.7064,1578.9211 688.8632,1576.2301 686.0488,1572.1971 679.7360,1574.5351 671.0311,1577.7357 670.6111,1577.9832 670.1912,1578.2307 669.7533,1578.4338 673.6139,1587.6257 678.6582,1599.0088 680.8077,1603.7712 683.3821,1609.3618 685.9899,1615.0230 683.6319,1619.6133 683.1419,1619.5123 674.4001,1617.3704 670.1008,1616.3768 664.7019,1615.5016 659.2543,1614.7749 653.5805,1614.0176 636.8299,1611.7857 633.8045,1611.4944 613.6208,1627.6154 613.3369,1627.7632 609.1074,1629.9660 607.0776,1625.4674 606.3958,1624.3370 605.4124,1622.7079 603.4249,1620.3615 602.1667,1617.9023 601.2124,1615.9454 600.7050,1615.0123 600.0663,1614.2168 599.1696,1614.5642 598.6601,1614.6278 597.8139,1615.3690 596.7780,1615.8730 594.7971,1616.5912 594.5036,1616.7019 582.8758,1621.1243 586.5357,1598.3057 586.7126,1597.2019 587.4974,1587.8010 588.1294,1587.7572 587.9172,1575.9215 587.8563,1565.8495 586.4713,1563.5481 574.1804,1558.7143 574.1107,1559.1126 573.8046,1561.8859 573.0887,1563.9369 572.1858,1565.7816 571.1154,1567.2760 570.0983,1568.3775 569.4767,1569.1057 565.7340,1572.1805 560.8495,1576.0291 558.0006,1578.2759 554.9232,1578.8063 548.8605,1579.6188 546.0224,1579.7968 542.9990,1579.9767 539.5879,1580.6321 538.2931,1581.4856 536.0170,1583.1716 533.1505,1585.6048 531.3188,1587.1430 527.2891,1591.1946 523.7210,1594.6240 517.8773,1599.6968 512.3788,1602.9070 510.2491,1603.9718 508.3975,1604.8490 506.6189,1605.6836 504.7302,1606.4368 501.0590,1607.6226 499.6703,1608.1864 497.9849,1608.7919 495.7067,1609.5235 488.6702,1612.6110 485.2450,1614.4231 483.4871,1615.4424 481.6355,1616.5042 480.0635,1617.6058 478.3063,1618.9980 474.7373,1622.2162 472.6804,1624.5909 471.5688,1625.8571 470.6897,1618.6777 448.4956,1621.5871 441.0081,1622.5728" opacity="1.0" stroke="black" stroke-width="1" fill="none"/>
    <polyline points="0.4957,291.4244 0.8395,282.6638 1.4255,273.9395 2.1774,265.3094 3.2490,257.2357 4.5295,248.8746 6.9366,239.4987 9.3262,231.7739 11.9942,224.2971 14.7643,216.7074 17.8515,209.0654 21.2194,201.7953 25.0081,194.1166 29.0526,186.8576 33.2200,179.9297 36.9216,172.8080 40.2130,165.4105 41.8480,161.3495 42.9666,158.3147 45.3944,151.0542 47.2671,144.1498 48.7114,137.2778 49.9492,129.8497 50.8153,122.4016 51.3562,115.0293 51.5250,107.5756 51.3396,99.9680 50.7646,92.4770 49.8660,85.2255 48.7659,78.3573 47.4840,71.0976 45.3920,63.5320 55.5719,57.3838 57.1078,56.4315 58.5319,56.2314 59.2509,56.1304 59.8001,56.0538 67.2349,55.0098 82.7646,52.8286 96.8162,55.0504 107.6688,56.7961 118.7567,58.5797 127.8376,60.0397 128.0770,60.0777 132.9985,51.6058 134.7193,48.2222 135.9734,43.9805 137.8307,36.6452 139.0027,30.5321 139.5513,25.1312 139.8708,17.9692 139.2031,12.7309 138.7003,10.2536 145.0246,8.6541 144.9808,8.4154 145.4438,8.3215 146.3943,8.1283 148.4553,7.7102 151.2342,6.9008 154.7013,5.6386 158.7114,4.1776 165.2576,2.3067 165.3130,2.5427 169.8484,1.2201 176.3490,0.3950 182.8636,0.8817 184.3917,0.9262 189.5750,1.0781 196.2302,1.8222 204.4395,2.6804 217.3271,4.0263 225.2658,4.8552 226.4081,4.9412 227.4853,5.0299 229.3903,5.1792 249.0983,7.8123 255.7283,8.0196 261.5501,8.2006 262.1839,8.2205 266.9380,9.2124 273.7398,17.0416 274.3371,17.7287 276.1692,19.1581 283.9120,25.2045 288.9158,29.1109 293.7880,33.3852 298.2574,37.3070 300.1382,39.0002 307.9836,46.0635 311.1400,48.9853 327.9910,55.3361 328.1681,55.4328 318.6813,78.0103 318.7729,78.9714 319.3845,88.6455 328.7261,95.2303 341.5677,104.2811 357.4406,115.4677 357.8409,145.0085 358.4997,145.1233 358.6514,145.1558 358.7921,145.1856 359.4820,145.3066 359.4471,145.5481 389.1825,150.9197 404.4022,153.5763 405.0932,153.6973 417.4702,155.8569 422.7081,156.7009 428.1348,157.7943 428.0530,158.4463 428.2629,158.9064 428.3275,159.0203 428.9383,160.1875 438.4843,176.5108 440.1821,179.4724 443.2794,184.8777 447.4553,192.1634 450.1353,196.5652 453.4919,202.0753 454.4334,203.6194 460.0200,210.7546 461.2101,212.2733 475.3356,229.8954 480.9808,237.0911 485.2266,242.5023 486.5871,244.3166 493.5322,253.2596 500.7177,262.5652 501.4794,263.5514 507.7848,271.7189 515.0273,281.0976 515.1045,281.1980 518.4801,285.5343 523.1967,291.5936 527.7706,297.4694 532.2197,303.1852 535.0617,306.8354 536.5506,309.3921 536.9342,310.0511 537.1929,310.3485 539.0265,312.4547 543.3636,318.2239 543.6747,318.6370 489.1986,321.1984 360.2521,327.2404 247.6952,332.5695 247.3176,348.2461 248.4565,354.4482 247.0117,354.8198 247.6783,361.1069 246.9829,402.8971 250.1624,418.9756 247.8095,419.2315 247.3129,431.6643 269.2551,454.8318 275.0529,460.2639 281.7214,465.9157 295.2565,475.9773 300.3199,479.7487 302.4579,481.4716 305.9828,485.3379 314.1039,496.6821 316.5668,499.3971 319.1767,502.0461 323.0577,505.2901 268.3224,545.4499 256.5140,535.1003 237.4974,524.3484 219.1729,517.9349 143.1371,502.2152 111.6270,489.3721 50.1557,447.6376 49.8688,446.6760 48.3029,440.9332 47.9606,439.6506 45.6806,432.7389 43.1223,426.0750 39.9597,419.0174 36.4069,412.0628 32.4087,405.3359 28.4567,398.3884 24.5486,391.5060 20.5701,383.4271 18.4214,378.8256 18.2259,378.4067 18.0325,377.9915 17.8380,377.5772 17.6647,377.2055 16.8065,375.3656 15.9125,373.0246 13.7399,367.3360 10.9616,359.4152 8.4399,351.1355 6.1224,342.8596 4.3887,334.8110 2.8493,326.2371 1.7473,317.5668 1.0118,308.7684 0.5348,300.0768 0.4957,291.4244" opacity="1.0" stroke="black" stroke-width="1" fill="none"/>
    <polyline points="246.9829,402.8971 247.6783,361.1069 247.0117,354.8198 248.4565,354.4482 247.3176,348.2461 247.6952,332.5695 360.2521,327.2404 361.2664,504.4133 361.4451,535.4065 351.9221,528.5048 347.3400,525.1715 338.7777,518.1456 323.0577,505.2901 319.1767,502.0461 316.5668,499.3971 314.1039,496.6821 305.9828,485.3379 302.4579,481.4716 300.3199,479.7487 295.2565,475.9773 281.7214,465.9157 275.0529,460.2639 269.2551,454.8318 247.3129,431.6643 247.8095,419.2315 250.1624,418.9756 246.9829,402.8971" opacity="1.0" stroke="black" stroke-width="1" fill="none"/>
    <polyline points="284.2988,1004.5367 289.8022,996.3546 291.6193,996.7898 295.9320,998.4963 296.7862,998.5786 297.5420,998.2329 298.2375,997.5153 307.8412,980.9221 314.8106,968.5015 319.4741,961.3582 320.9342,958.4798 323.4764,953.2061 324.6188,950.2345 325.3993,947.8538 326.3041,944.5736 327.4711,937.4317 328.0384,928.9968 327.8250,920.1839 327.2712,916.5502 326.4067,912.2633 325.4110,908.7473 323.8135,904.3881 322.0747,900.4080 320.0730,897.0894 317.5246,893.7952 315.0975,891.0530 312.6487,888.7830 310.2958,886.9827 305.4862,883.6832 301.7139,881.3084 306.2187,873.0348 360.8795,898.1755 499.4070,968.0439 494.9685,978.6489 483.4138,1006.7319 471.9926,1034.3420 468.2755,1043.3798 463.5913,1054.8215 454.6549,1075.5042 451.8292,1080.0091 448.9420,1083.7213 444.9315,1087.7876 440.8144,1091.0848 436.7119,1093.6099 432.4240,1095.6302 427.8242,1097.1935 423.3370,1098.1178 418.4956,1098.4341 413.4972,1097.9467 409.2659,1096.9307 404.5092,1094.9988 399.5879,1092.4607 397.7802,1092.8792 371.6204,1076.2525 284.2988,1004.5367" opacity="1.0" stroke="black" stroke-width="1" fill="none"/>
    <polyline points="519.2835,1182.9522 521.0793,1178.1095 523.0159,1173.2721 529.2890,1159.7418 544.1545,1128.4957 552.3253,1112.3113 557.7694,1115.2795 580.3973,1126.6136 626.9595,1149.8469 640.2915,1156.6680 664.1898,1169.9032 663.5538,1160.5258 663.4935,1145.3462 664.6726,1131.5848 666.7312,1118.2303 678.2013,1062.9587 685.7383,1024.4287 691.9475,1023.3135 694.1306,1022.7073 696.5752,1022.2439 698.3725,1021.9538 700.6527,1021.7194 704.3799,1021.4468 706.9749,1021.2085 709.7389,1021.1130 713.0984,1021.1347 716.6444,1021.3182 719.0782,1021.5578 721.5885,1022.0850 728.4873,1023.4266 734.4222,1024.8630 738.5161,1025.9499 741.0471,1026.6019 744.9001,1027.7532 747.5261,1028.6720 749.6508,1029.5551 751.2355,1030.2804 753.1766,1031.3518 755.4535,1032.5642 757.1533,1033.6594 758.8014,1035.0650 761.1418,1037.1035 763.2296,1039.7231 766.3088,1043.1988 770.3700,1048.2327 773.6655,1052.9035 776.3690,1058.0021 777.7088,1060.4278 781.5137,1066.5715 784.0590,1070.8666 786.0818,1074.9188 787.1224,1077.0996 789.9590,1082.9428 792.8170,1089.0349 795.3231,1095.2957 798.0145,1101.5346 800.4477,1107.8787 803.0466,1114.0979 803.3356,1114.8388 805.4406,1120.2358 807.7959,1126.2497 808.5732,1128.0209 809.4647,1130.2246 810.5639,1132.6959 811.2455,1133.8962 811.6950,1134.6885 812.8649,1136.7453 813.9185,1138.3886 815.0860,1140.1548 816.3798,1141.5888 817.6911,1142.8980 818.5154,1143.7578 819.7502,1144.8199 821.5784,1145.7719 821.1320,1147.8249 820.8686,1148.8053 820.4779,1150.2645 820.4552,1150.3496 824.2048,1154.4319 828.9515,1159.6009 843.8074,1172.3840 847.0042,1175.9509 849.1077,1177.4926 851.9366,1179.1340 853.0917,1179.7436 858.1850,1182.1056 861.6994,1183.6630 863.7263,1184.5630 867.0344,1185.5631 870.3974,1186.3548 874.0949,1187.0629 877.3633,1187.4004 879.1851,1187.5106 882.2123,1187.4031 884.1969,1187.1818 886.7720,1186.4801 889.1982,1185.6764 891.6047,1184.6455 893.7697,1183.6167 897.2481,1181.8532 898.9869,1180.8692 900.3355,1179.8042 901.9041,1178.4285 904.4877,1175.9901 907.2644,1177.7896 923.5112,1181.9694 925.5939,1182.5379 926.5434,1182.8598 927.8463,1183.4085 928.6656,1183.7315 929.3540,1183.9750 930.1171,1184.1958 931.0481,1184.5195 928.9208,1188.6518 920.1011,1205.6458 914.7033,1216.5112 914.4439,1217.0790 914.1558,1217.6115 908.1605,1214.0437 897.6943,1207.6111 854.1404,1290.1039 780.4346,1243.2549 772.6399,1258.3085 771.9833,1259.8351 771.6867,1262.0429 770.1259,1316.9426 773.6786,1327.3340 774.0629,1328.7067 774.2155,1330.4843 774.2071,1332.1552 773.8107,1334.0981 773.4715,1335.1746 772.3514,1337.2802 678.2412,1280.4377 650.0070,1263.3817 606.9255,1237.3537 519.2835,1182.9522" opacity="1.0" stroke="black" stroke-width="1" fill="none"/>
    <polyline points="581.5885,731.5947 597.9155,717.1584 603.3440,712.5450 606.9400,709.7366 610.1347,707.5363 615.0679,704.2457 687.9298,659.0788 738.4839,627.7139 749.2179,621.1634 751.3812,623.0629 772.3161,631.6517 775.1671,735.2102 742.4608,737.8554 730.8476,747.5382 721.9309,753.5103 717.5786,754.7208 717.1253,754.9844 715.1859,757.2821 714.0109,758.4312 711.6903,759.4490 665.9656,790.8957 665.1776,791.7341 661.1288,798.2528 654.8055,795.0872 648.1075,822.2944 647.5227,822.1202 647.2070,823.4766 647.9466,825.3932 648.1241,826.8741 647.9719,828.3580 647.4086,829.8431 646.2833,831.3078 645.2570,832.0531 640.3649,822.5675 637.4804,816.0283 634.3625,808.1511 631.8591,800.5559 628.8373,789.7800 624.0240,770.0489 621.4774,761.3448 616.8097,758.3225 609.4263,754.6063 605.6819,752.5821 604.1898,751.3364 602.9890,749.6789 597.5810,740.0302 596.3724,738.5238 594.9566,737.3694 593.2795,736.5101 581.5885,731.5947" opacity="1.0" stroke="black" stroke-width="1" fill="none"/>
    <polyline points="268.3224,545.4499 323.0577,505.2901 338.7777,518.1456 347.3400,525.1715 351.9221,528.5048 361.4451,535.4065 361.2664,504.4133 360.2521,327.2404 489.1986,321.1984 543.6747,318.6370 543.9885,319.0501 544.9355,320.2976 554.1746,332.4687 573.8927,357.9161 573.8726,357.9731 573.8029,358.1739 573.8664,358.2580 581.7038,368.6247 588.6693,377.8361 573.2802,515.1731 571.2935,537.6066 510.5993,536.8383 506.3575,548.6801 506.2087,549.6788 506.2377,551.0600 506.7123,553.3554 502.8956,554.3348 500.1261,556.8470 463.9502,604.7690 462.5805,606.5976 457.9058,613.5879 454.4666,620.0069 452.6658,624.1423 448.6879,634.5544 440.3949,656.2365 439.3142,659.2872 438.5201,661.9343 437.9318,664.3443 435.4521,675.9558 433.9051,683.2040 446.3255,683.8226 454.9426,684.6348 459.4562,685.1552 457.7836,688.6051 420.4477,715.0972 439.2154,741.0228 429.6633,732.4649 426.7262,730.0240 423.2247,727.5680 418.2638,724.4944 414.6075,722.5875 363.3526,699.6223 359.1477,710.5510 348.0047,705.5753 337.3049,709.6114 325.3084,715.6593 315.6605,716.6734 309.9358,716.9578 311.7182,705.1286 311.7499,703.5925 311.3869,702.1008 310.6847,700.3105 309.3804,696.9409 323.6415,679.7003 314.0896,675.4449 302.1689,647.6842 297.8353,608.1327 295.0280,592.9798 289.9742,578.6891 281.4890,562.4095 268.3224,545.4499" opacity="1.0" stroke="black" stroke-width="1" fill="none"/>
    <polyline points="645.2570,832.0531 646.2833,831.3078 647.4086,829.8431 647.9719,828.3580 648.1241,826.8741 647.9466,825.3932 647.2070,823.4766 647.5227,822.1202 648.1075,822.2944 654.8055,795.0872 661.1288,798.2528 665.1776,791.7341 665.9656,790.8957 711.6903,759.4490 714.0109,758.4312 715.1859,757.2821 717.1253,754.9844 717.5786,754.7208 721.9309,753.5103 730.8476,747.5382 742.4608,737.8554 775.1671,735.2102 772.3161,631.6517 776.0653,633.1525 790.3726,638.8784 795.3599,640.5099 809.0752,644.9975 822.7639,636.9563 828.7367,630.6669 830.8791,627.6144 837.9048,632.7577 840.9553,623.2727 854.4448,629.9782 854.8980,628.4164 873.2372,634.9335 884.5480,639.0148 884.4287,639.3116 894.4291,643.1862 894.7184,643.7485 893.5593,659.0059 891.8600,683.1791 891.2450,692.3771 891.4961,692.8111 906.5331,704.8142 905.0984,705.7061 902.5541,705.7914 900.2066,706.4220 894.3908,710.7033 892.2821,712.8995 885.0640,726.0334 885.7719,726.5410 885.1775,727.6137 884.9820,727.9668 893.2361,734.5332 897.0464,738.5030 897.6795,738.8967 895.1346,740.2738 889.4393,743.5002 889.3534,743.9083 902.5096,770.6842 908.5947,783.1854 915.0560,796.0752 902.6126,803.6019 897.1155,806.9875 893.5601,808.8708 889.3370,810.9050 887.6513,811.7221 883.5930,813.4647 878.4424,815.6908 875.6638,816.9705 871.6104,818.9203 868.3422,820.7967 864.8732,823.0271 857.2546,828.1356 851.3691,832.0677 847.6447,834.7552 844.8978,836.8110 842.5397,838.7397 841.3042,839.6829 837.6562,842.5765 835.3895,844.3586 846.1270,866.2958 830.5495,871.0570 818.4310,874.8940 814.6588,876.2098 812.0515,877.1579 811.4051,877.4780 810.5751,877.9239 809.7092,878.5147 808.9365,879.1462 808.2384,879.7974 807.5426,880.5925 806.7177,881.5967 806.2255,882.3075 805.5303,883.2681 805.2026,883.8104 798.7825,882.6026 796.7386,884.0794 791.5241,887.5670 789.3831,888.5164 787.5663,889.3361 784.6714,890.6445 778.2187,889.8915 775.2660,889.5613 773.5217,889.5141 772.3162,889.5867 770.7594,889.7646 768.4612,890.0536 766.4599,890.3395 764.2740,890.6890 762.6617,890.9927 760.0874,891.5108 757.3651,892.2362 754.8654,892.8582 752.7913,893.3722 750.7922,893.9060 748.4593,894.5668 746.1635,895.1859 743.4422,896.0162 741.1656,896.9330 734.6850,900.7143 733.5093,900.2367 714.3133,892.8453 705.6742,890.5470 696.2632,886.7644 690.7714,883.7313 685.1254,880.0795 680.0048,876.1530 674.1798,871.0373 666.1252,862.6424 658.5799,853.4591 655.1086,848.4701 649.1404,838.8794 645.2570,832.0531" opacity="1.0" stroke="black" stroke-width="1" fill="none"/>
  </g>
</svg>