<?xml version="1.0" encoding="UTF-8"?>
<!DOCTYPE svg PUBLIC "-//W3C//DTD SVG 1.1//EN"
    "http://www.w3.org/Graphics/SVG/1.1/DTD/svg11.dtd">
<svg xmlns="http://www.w3.org/2000/svg" xmlns:xlink="http://www.w3.org/1999/xlink" version="1.11.1">
  <g>
    <g>
      <polyline points="0.0000,500.0000 900.0000,500.0000" opacity="0.2" stroke="black" stroke-width="1" fill="none"/>
      <polyline points="0.0000,375.0000 900.0000,375.0000" opacity="0.2" stroke="black" stroke-width="1" fill="none"/>
      <polyline points="0.0000,250.0000 900.0000,250.0000" opacity="0.2" stroke="black" stroke-width="1" fill="none"/>
      <polyline points="0.0000,125.0000 900.0000,125.0000" opacity="0.2" stroke="black" stroke-width="1" fill="none"/>
      <polyline points="0.0000,0.0000 900.0000,0.0000" opacity="0.2" stroke="black" stroke-width="1" fill="none"/>
    </g>
    <g>
      <g>
        <polygon points="9.0000,500.0000 90.0000,500.0000 90.0000,250.0000 9.0000,250.0000" opacity="1.0" fill="#1b9e77"/>
        <polygon points="90.0000,500.0000 171.0000,500.0000 171.0000,150.0000 90.0000,150.0000" opacity="1.0" fill="#d95f02"/>
      </g>
      <g>
        <polygon points="189.0000,500.0000 270.0000,500.0000 270.0000,300.0000 189.0000,300.0000" opacity="1.0" fill="#1b9e77"/>
        <polygon points="270.0000,500.0000 351.0000,500.0000 351.0000,100.0000 270.0000,100.0000" opacity="1.0" fill="#d95f02"/>
      </g>
      <g>
        <polygon points="369.0000,500.0000 450.0000,500.0000 450.0000,325.0000 369.0000,325.0000" opacity="1.0" fill="#1b9e77"/>
        <polygon points="450.0000,500.0000 531.0000,500.0000 531.0000,87.5000 450.0000,87.5000" opacity="1.0" fill="#d95f02"/>
      </g>
      <g>
        <polygon points="549.0000,500.0000 630.0000,500.0000 630.0000,325.0000 549.0000,325.0000" opacity="1.0" fill="#1b9e77"/>
        <polygon points="630.0000,500.0000 711.0000,500.0000 711.0000,87.5000 630.0000,87.5000" opacity="1.0" fill="#d95f02"/>
      </g>
      <g>
        <polygon points="729.0000,500.0000 810.0000,500.0000 810.0000,325.0000 729.0000,325.0000" opacity="1.0" fill="#1b9e77"/>
        <polygon points="810.0000,500.0000 891.0000,500.0000 891.0000,87.5000 810.0000,87.5000" opacity="1.0" fill="#d95f02"/>
      </g>
    </g>
    <g>
      <g>
        <polyline points="0.0000,500.0000 900.0000,500.0000" opacity="1.0" stroke="black" stroke-width="1" fill="none"/>
        <polyline points="90.0000,500.0000 90.0000,505.0000" opacity="1.0" stroke="black" stroke-width="1" fill="none"/>
        <polyline points="270.0000,500.0000 270.0000,505.0000" opacity="1.0" stroke="black" stroke-width="1" fill="none"/>
        <polyline points="450.0000,500.0000 450.0000,505.0000" opacity="1.0" stroke="black" stroke-width="1" fill="none"/>
        <polyline points="630.0000,500.0000 630.0000,505.0000" opacity="1.0" stroke="black" stroke-width="1" fill="none"/>
        <polyline points="810.0000,500.0000 810.0000,505.0000" opacity="1.0" stroke="black" stroke-width="1" fill="none"/>
        <polyline points="-5.0000,500.0000 0.0000,500.0000" opacity="1.0" stroke="black" stroke-width="1" fill="none"/>
        <polyline points="-5.0000,375.0000 0.0000,375.0000" opacity="1.0" stroke="black" stroke-width="1" fill="none"/>
        <polyline points="-5.0000,250.0000 0.0000,250.0000" opacity="1.0" stroke="black" stroke-width="1" fill="none"/>
        <polyline points="-5.0000,125.0000 0.0000,125.0000" opacity="1.0" stroke="black" stroke-width="1" fill="none"/>
        <polyline points="-5.0000,0.0000 0.0000,0.0000" opacity="1.0" stroke="black" stroke-width="1" fill="none"/>
      </g>
      <g>
        <text font-size="10pt" x="90.0000" font-weight="200" text-anchor="middle" y="520.0000">2014
        </text>
        <text font-size="10pt" x="270.0000" font-weight="200" text-anchor="middle" y="520.0000">2015
        </text>
        <text font-size="10pt" x="450.0000" font-weight="200" text-anchor="middle" y="520.0000">2016
        </text>
        <text font-size="10pt" x="630.0000" font-weight="200" text-anchor="middle" y="520.0000">2017
        </text>
        <text font-size="10pt" x="810.0000" font-weight="200" text-anchor="middle" y="520.0000">2018
        </text>
        <text font-size="10pt" x="-20.0000" font-weight="200" text-anchor="end" y="500.0000">0
        </text>
        <text font-size="10pt" x="-20.0000" font-weight="200" text-anchor="end" y="375.0000">50
        </text>
        <text font-size="10pt" x="-20.0000" font-weight="200" text-anchor="end" y="250.0000">100
        </text>
        <text font-size="10pt" x="-20.0000" font-weight="200" text-anchor="end" y="125.0000">150
        </text>
        <text font-size="10pt" x="-20.0000" font-weight="200" text-anchor="end" y="0.0000">200
        </text>
      </g>
    </g>
  </g>
</svg>